<svg xmlns="http://www.w3.org/2000/svg" xmlns:xlink="http://www.w3.org/1999/xlink" contentStyleType="text/css" height="1155px" preserveAspectRatio="none" style="width:587px;height:1155px;background:#FFFFFF;" version="1.1" viewBox="0 0 587 1155" width="587px" zoomAndPan="magnify"><title>Job Deployment SOP at a Glance (Phase 1 manual / Phase 2 pipeline)</title><defs/><g><text fill="#000000" font-family="sans-serif" font-size="14" font-weight="bold" lengthAdjust="spacing" textLength="544.0996" x="20" y="32.9951">Job Deployment SOP at a Glance (Phase 1 manual / Phase 2 pipeline)</text><ellipse cx="277.5464" cy="57.2969" fill="#222222" rx="10" ry="10" style="stroke:#222222;stroke-width:1;"/><rect fill="none" height="136.2344" style="stroke:#000000;stroke-width:1.5;" width="242.0313" x="156.5308" y="77.2969"/><path d="M288.9419,77.2969 L288.9419,86.5938 L278.9419,96.5938 L156.5308,96.5938 " fill="none" style="stroke:#000000;stroke-width:1.5;"/><text fill="#000000" font-family="sans-serif" font-size="14" lengthAdjust="spacing" textLength="122.4111" x="159.5308" y="91.292">Stage 1 - Prepare</text><rect fill="#F1F1F1" height="33.9688" rx="12.5" ry="12.5" style="stroke:#181818;stroke-width:0.5;" width="182.1992" x="186.4468" y="113.5938"/><text fill="#000000" font-family="sans-serif" font-size="12" lengthAdjust="spacing" textLength="162.1992" x="196.4468" y="134.7324">Merged to main? Note SHA</text><rect fill="#F1F1F1" height="33.9688" rx="12.5" ry="12.5" style="stroke:#181818;stroke-width:0.5;" width="222.0313" x="166.5308" y="167.5625"/><text fill="#000000" font-family="sans-serif" font-size="12" lengthAdjust="spacing" textLength="202.0313" x="176.5308" y="188.7012">Prod only: release tag + approval</text><rect fill="none" height="224.2031" style="stroke:#000000;stroke-width:1.5;" width="397.4624" x="47.314" y="223.5313"/><path d="M182.5825,223.5313 L182.5825,232.8281 L172.5825,242.8281 L47.314,242.8281 " fill="none" style="stroke:#000000;stroke-width:1.5;"/><text fill="#000000" font-family="sans-serif" font-size="14" lengthAdjust="spacing" textLength="125.2686" x="50.314" y="237.5264">Stage 2 - Validate</text><rect fill="#F1F1F1" height="33.9688" rx="12.5" ry="12.5" style="stroke:#181818;stroke-width:0.5;" width="165.916" x="194.5884" y="259.8281"/><text fill="#000000" font-family="sans-serif" font-size="12" lengthAdjust="spacing" textLength="145.916" x="204.5884" y="280.9668">./scripts/build_shared.sh</text><rect fill="#F1F1F1" height="33.9688" rx="12.5" ry="12.5" style="stroke:#181818;stroke-width:0.5;" width="174.8223" x="190.1353" y="313.7969"/><text fill="#000000" font-family="sans-serif" font-size="12" lengthAdjust="spacing" textLength="154.8223" x="200.1353" y="334.9355">pytest libs + project tests</text><polygon fill="#F1F1F1" points="250.4465,367.7656,304.6462,367.7656,316.6462,379.7656,304.6462,391.7656,250.4465,391.7656,238.4465,379.7656,250.4465,367.7656" style="stroke:#181818;stroke-width:0.5;"/><text fill="#000000" font-family="sans-serif" font-size="11" lengthAdjust="spacing" textLength="54.1997" x="250.4465" y="383.5737">all green?</text><text fill="#000000" font-family="sans-serif" font-size="11" lengthAdjust="spacing" textLength="19.0083" x="219.4382" y="377.1714">yes</text><text fill="#000000" font-family="sans-serif" font-size="11" lengthAdjust="spacing" textLength="13.7017" x="316.6462" y="377.1714">no</text><rect fill="#F1F1F1" height="33.9688" rx="12.5" ry="12.5" style="stroke:#181818;stroke-width:0.5;" width="232.3848" x="66.8799" y="401.7656"/><text fill="#000000" font-family="sans-serif" font-size="12" lengthAdjust="spacing" textLength="212.3848" x="76.8799" y="422.9043">bundle validate (staging AND prod)</text><rect fill="#F1F1F1" height="33.9688" rx="12.5" ry="12.5" style="stroke:#181818;stroke-width:0.5;" width="105.5117" x="319.2646" y="401.7656"/><text fill="#000000" font-family="sans-serif" font-size="12" lengthAdjust="spacing" textLength="85.5117" x="329.2646" y="422.9043">STOP - fix first</text><rect fill="none" height="218.1406" style="stroke:#000000;stroke-width:1.5;" width="238.2402" x="158.4263" y="457.7344"/><path d="M285.2114,457.7344 L285.2114,467.0313 L275.2114,477.0313 L158.4263,477.0313 " fill="none" style="stroke:#000000;stroke-width:1.5;"/><text fill="#000000" font-family="sans-serif" font-size="14" lengthAdjust="spacing" textLength="116.7852" x="161.4263" y="471.7295">Stage 3 - Deploy</text><rect fill="#F1F1F1" height="47.9375" rx="12.5" ry="12.5" style="stroke:#181818;stroke-width:0.5;" width="218.2402" x="168.4263" y="494.0313"/><text fill="#000000" font-family="sans-serif" font-size="12" lengthAdjust="spacing" textLength="198.2402" x="178.4263" y="515.1699">Authenticate as the TARGET's SP</text><text fill="#000000" font-family="sans-serif" font-size="12" lengthAdjust="spacing" textLength="136.1895" x="178.4263" y="529.1387">(never your own login)</text><rect fill="#F1F1F1" height="47.9375" rx="12.5" ry="12.5" style="stroke:#181818;stroke-width:0.5;" width="178.8418" x="188.1255" y="561.9688"/><text fill="#000000" font-family="sans-serif" font-size="12" lengthAdjust="spacing" textLength="124.377" x="198.1255" y="583.1074">cd projects/&lt;name&gt;</text><text fill="#000000" font-family="sans-serif" font-size="12" lengthAdjust="spacing" textLength="158.8418" x="198.1255" y="597.0762">bundle deploy -t &lt;target&gt;</text><rect fill="#F1F1F1" height="33.9688" rx="12.5" ry="12.5" style="stroke:#181818;stroke-width:0.5;" width="195.541" x="179.7759" y="629.9063"/><text fill="#000000" font-family="sans-serif" font-size="12" lengthAdjust="spacing" textLength="175.541" x="189.7759" y="651.0449">Record SHA, target, deployer</text><rect fill="none" height="160.2344" style="stroke:#000000;stroke-width:1.5;" width="484.9058" x="54.8799" y="685.875"/><path d="M173.6943,685.875 L173.6943,695.1719 L163.6943,705.1719 L54.8799,705.1719 " fill="none" style="stroke:#000000;stroke-width:1.5;"/><text fill="#000000" font-family="sans-serif" font-size="14" lengthAdjust="spacing" textLength="108.8145" x="57.8799" y="699.8701">Stage 4 - Verify</text><polygon fill="#F1F1F1" points="257.8076,722.1719,297.2852,722.1719,309.2852,734.1719,297.2852,746.1719,257.8076,746.1719,245.8076,734.1719,257.8076,722.1719" style="stroke:#181818;stroke-width:0.5;"/><text fill="#000000" font-family="sans-serif" font-size="11" lengthAdjust="spacing" textLength="39.4775" x="257.8076" y="737.98">target?</text><text fill="#000000" font-family="sans-serif" font-size="11" lengthAdjust="spacing" textLength="40.7773" x="205.0303" y="731.5776">staging</text><text fill="#000000" font-family="sans-serif" font-size="11" lengthAdjust="spacing" textLength="25.2173" x="309.2852" y="731.5776">prod</text><rect fill="#F1F1F1" height="47.9375" rx="12.5" ry="12.5" style="stroke:#181818;stroke-width:0.5;" width="169.5313" x="74.4458" y="756.1719"/><text fill="#000000" font-family="sans-serif" font-size="12" lengthAdjust="spacing" textLength="140.8359" x="84.4458" y="777.3105">pytest tests/integration</text><text fill="#000000" font-family="sans-serif" font-size="12" lengthAdjust="spacing" textLength="149.5313" x="84.4458" y="791.2793">(runs the DEPLOYED job)</text><rect fill="#F1F1F1" height="33.9688" rx="12.5" ry="12.5" style="stroke:#181818;stroke-width:0.5;" width="263.8086" x="263.9771" y="756.1719"/><text fill="#000000" font-family="sans-serif" font-size="12" lengthAdjust="spacing" textLength="243.8086" x="273.9771" y="777.3105">one verification run + spot-check output</text><polygon fill="#F1F1F1" points="277.5464,810.1094,289.5464,822.1094,277.5464,834.1094,265.5464,822.1094,277.5464,810.1094" style="stroke:#181818;stroke-width:0.5;"/><rect fill="none" height="190.2031" style="stroke:#000000;stroke-width:1.5;" width="231.209" x="161.9419" y="911.8198"/><path d="M299.0493,911.8198 L299.0493,921.1167 L289.0493,931.1167 L161.9419,931.1167 " fill="none" style="stroke:#000000;stroke-width:1.5;"/><text fill="#000000" font-family="sans-serif" font-size="14" lengthAdjust="spacing" textLength="127.1074" x="164.9419" y="925.8149">Stage 5 - Rollback</text><rect fill="#F1F1F1" height="33.9688" rx="12.5" ry="12.5" style="stroke:#181818;stroke-width:0.5;" width="153.6582" x="200.7173" y="948.1167"/><text fill="#000000" font-family="sans-serif" font-size="12" lengthAdjust="spacing" textLength="133.6582" x="210.7173" y="969.2554">checkout previous tag</text><rect fill="#F1F1F1" height="33.9688" rx="12.5" ry="12.5" style="stroke:#181818;stroke-width:0.5;" width="211.209" x="171.9419" y="1002.0854"/><text fill="#000000" font-family="sans-serif" font-size="12" lengthAdjust="spacing" textLength="191.209" x="181.9419" y="1023.2241">repeat Stages 3-4 from that tag</text><rect fill="#F1F1F1" height="33.9688" rx="12.5" ry="12.5" style="stroke:#181818;stroke-width:0.5;" width="193.1621" x="180.9653" y="1056.0542"/><text fill="#000000" font-family="sans-serif" font-size="12" lengthAdjust="spacing" textLength="173.1621" x="190.9653" y="1077.1929">log rollback + open fix ticket</text><ellipse cx="277.5464" cy="1133.0229" fill="none" rx="11" ry="11" style="stroke:#222222;stroke-width:1;"/><ellipse cx="277.5464" cy="1133.0229" fill="#222222" rx="6" ry="6" style="stroke:#222222;stroke-width:1;"/><polygon fill="#F1F1F1" points="222.5894,866.1094,332.5034,866.1094,344.5034,878.1094,332.5034,890.1094,222.5894,890.1094,210.5894,878.1094,222.5894,866.1094" style="stroke:#181818;stroke-width:0.5;"/><text fill="#000000" font-family="sans-serif" font-size="11" lengthAdjust="spacing" textLength="13.7017" x="281.5464" y="900.3198">no</text><text fill="#000000" font-family="sans-serif" font-size="11" lengthAdjust="spacing" textLength="109.9141" x="222.5894" y="881.9175">verification passed?</text><text fill="#000000" font-family="sans-serif" font-size="11" lengthAdjust="spacing" textLength="19.0083" x="344.5034" y="875.5151">yes</text><ellipse cx="385.5117" cy="878.1094" fill="none" rx="11" ry="11" style="stroke:#222222;stroke-width:1;"/><ellipse cx="385.5117" cy="878.1094" fill="#222222" rx="6" ry="6" style="stroke:#222222;stroke-width:1;"/><line style="stroke:#181818;stroke-width:1;" x1="277.5464" x2="277.5464" y1="147.5625" y2="167.5625"/><polygon fill="#181818" points="273.5464,157.5625,277.5464,167.5625,281.5464,157.5625,277.5464,161.5625" style="stroke:#181818;stroke-width:1;"/><line style="stroke:#181818;stroke-width:1;" x1="277.5464" x2="277.5464" y1="67.2969" y2="113.5938"/><polygon fill="#181818" points="273.5464,103.5938,277.5464,113.5938,281.5464,103.5938,277.5464,107.5938" style="stroke:#181818;stroke-width:1;"/><line style="stroke:#181818;stroke-width:1;" x1="277.5464" x2="277.5464" y1="293.7969" y2="313.7969"/><polygon fill="#181818" points="273.5464,303.7969,277.5464,313.7969,281.5464,303.7969,277.5464,307.7969" style="stroke:#181818;stroke-width:1;"/><line style="stroke:#181818;stroke-width:1;" x1="238.4465" x2="183.0723" y1="379.7656" y2="379.7656"/><line style="stroke:#181818;stroke-width:1;" x1="183.0723" x2="183.0723" y1="379.7656" y2="401.7656"/><polygon fill="#181818" points="179.0723,391.7656,183.0723,401.7656,187.0723,391.7656,183.0723,395.7656" style="stroke:#181818;stroke-width:1;"/><line style="stroke:#181818;stroke-width:1;" x1="316.6462" x2="372.0205" y1="379.7656" y2="379.7656"/><line style="stroke:#181818;stroke-width:1;" x1="372.0205" x2="372.0205" y1="379.7656" y2="401.7656"/><polygon fill="#181818" points="368.0205,391.7656,372.0205,401.7656,376.0205,391.7656,372.0205,395.7656" style="stroke:#181818;stroke-width:1;"/><line style="stroke:#181818;stroke-width:1;" x1="183.0723" x2="183.0723" y1="435.7344" y2="440.7344"/><line style="stroke:#181818;stroke-width:1;" x1="183.0723" x2="277.5464" y1="440.7344" y2="440.7344"/><line style="stroke:#181818;stroke-width:1;" x1="277.5464" x2="277.5464" y1="440.7344" y2="494.0313"/><polygon fill="#181818" points="273.5464,484.0313,277.5464,494.0313,281.5464,484.0313,277.5464,488.0313" style="stroke:#181818;stroke-width:1;"/><line style="stroke:#181818;stroke-width:1;" x1="277.5464" x2="277.5464" y1="347.7656" y2="367.7656"/><polygon fill="#181818" points="273.5464,357.7656,277.5464,367.7656,281.5464,357.7656,277.5464,361.7656" style="stroke:#181818;stroke-width:1;"/><line style="stroke:#181818;stroke-width:1;" x1="277.5464" x2="277.5464" y1="201.5313" y2="259.8281"/><polygon fill="#181818" points="273.5464,249.8281,277.5464,259.8281,281.5464,249.8281,277.5464,253.8281" style="stroke:#181818;stroke-width:1;"/><line style="stroke:#181818;stroke-width:1;" x1="277.5464" x2="277.5464" y1="541.9688" y2="561.9688"/><polygon fill="#181818" points="273.5464,551.9688,277.5464,561.9688,281.5464,551.9688,277.5464,555.9688" style="stroke:#181818;stroke-width:1;"/><line style="stroke:#181818;stroke-width:1;" x1="277.5464" x2="277.5464" y1="609.9063" y2="629.9063"/><polygon fill="#181818" points="273.5464,619.9063,277.5464,629.9063,281.5464,619.9063,277.5464,623.9063" style="stroke:#181818;stroke-width:1;"/><line style="stroke:#181818;stroke-width:1;" x1="245.8076" x2="159.2114" y1="734.1719" y2="734.1719"/><line style="stroke:#181818;stroke-width:1;" x1="159.2114" x2="159.2114" y1="734.1719" y2="756.1719"/><polygon fill="#181818" points="155.2114,746.1719,159.2114,756.1719,163.2114,746.1719,159.2114,750.1719" style="stroke:#181818;stroke-width:1;"/><line style="stroke:#181818;stroke-width:1;" x1="309.2852" x2="395.8813" y1="734.1719" y2="734.1719"/><line style="stroke:#181818;stroke-width:1;" x1="395.8813" x2="395.8813" y1="734.1719" y2="756.1719"/><polygon fill="#181818" points="391.8813,746.1719,395.8813,756.1719,399.8813,746.1719,395.8813,750.1719" style="stroke:#181818;stroke-width:1;"/><line style="stroke:#181818;stroke-width:1;" x1="159.2114" x2="159.2114" y1="804.1094" y2="822.1094"/><line style="stroke:#181818;stroke-width:1;" x1="159.2114" x2="265.5464" y1="822.1094" y2="822.1094"/><polygon fill="#181818" points="255.5464,818.1094,265.5464,822.1094,255.5464,826.1094,259.5464,822.1094" style="stroke:#181818;stroke-width:1;"/><line style="stroke:#181818;stroke-width:1;" x1="395.8813" x2="395.8813" y1="790.1406" y2="822.1094"/><line style="stroke:#181818;stroke-width:1;" x1="395.8813" x2="289.5464" y1="822.1094" y2="822.1094"/><polygon fill="#181818" points="299.5464,818.1094,289.5464,822.1094,299.5464,826.1094,295.5464,822.1094" style="stroke:#181818;stroke-width:1;"/><line style="stroke:#181818;stroke-width:1;" x1="277.5464" x2="277.5464" y1="663.875" y2="722.1719"/><polygon fill="#181818" points="273.5464,712.1719,277.5464,722.1719,281.5464,712.1719,277.5464,716.1719" style="stroke:#181818;stroke-width:1;"/><line style="stroke:#181818;stroke-width:1;" x1="277.5464" x2="277.5464" y1="982.0854" y2="1002.0854"/><polygon fill="#181818" points="273.5464,992.0854,277.5464,1002.0854,281.5464,992.0854,277.5464,996.0854" style="stroke:#181818;stroke-width:1;"/><line style="stroke:#181818;stroke-width:1;" x1="277.5464" x2="277.5464" y1="1036.0542" y2="1056.0542"/><polygon fill="#181818" points="273.5464,1046.0542,277.5464,1056.0542,281.5464,1046.0542,277.5464,1050.0542" style="stroke:#181818;stroke-width:1;"/><line style="stroke:#181818;stroke-width:1;" x1="277.5464" x2="277.5464" y1="1090.0229" y2="1122.0229"/><polygon fill="#181818" points="273.5464,1112.0229,277.5464,1122.0229,281.5464,1112.0229,277.5464,1116.0229" style="stroke:#181818;stroke-width:1;"/><line style="stroke:#181818;stroke-width:1;" x1="277.5464" x2="277.5464" y1="890.1094" y2="948.1167"/><polygon fill="#181818" points="273.5464,938.1167,277.5464,948.1167,281.5464,938.1167,277.5464,942.1167" style="stroke:#181818;stroke-width:1;"/><line style="stroke:#181818;stroke-width:1;" x1="344.5034" x2="374.5117" y1="878.1094" y2="878.1094"/><polygon fill="#181818" points="364.5117,874.1094,374.5117,878.1094,364.5117,882.1094,368.5117,878.1094" style="stroke:#181818;stroke-width:1;"/><line style="stroke:#181818;stroke-width:1;" x1="277.5464" x2="277.5464" y1="834.1094" y2="866.1094"/><polygon fill="#181818" points="273.5464,856.1094,277.5464,866.1094,281.5464,856.1094,277.5464,860.1094" style="stroke:#181818;stroke-width:1;"/><!--SRC=[RLFDRXen4Bxp5ADSkgWXg4bw8L4Y952ggarMW2hrL7dNm-9WRCkUfKLLthqptYLDcnpWCFPylruoP14- -mfc6Am_xD0HB1zAK0GAxgnoDK9HRbH2-00xvLfbOGpTu1o22MYDm-4WaOeq2Fndo7W79qjIZUoCe8p8Spo1tmE0oLUC3MeWpsZ6tSAz9uJbf-cL79RHQ_3E7YOGqQAGC0oy1nL2z7jbhmPFhqdEcUIRiaOhEhASZLCTJQ0qhbfZzO-qOGNwB6qoJJWG9W9hgiJOZFo8DO7CafoRDHJAMcWYehiT0ctGGN70DEH3NgzQfpcrVKy91PjlZ6jWUZyJD3qK5BIild2-NrgkEDKHhCql_iL4LtcyDTRANQVD-Yrh5xpIDTCRcxQYXamjn2g9DbXD5tVprRi4ovAl50xt6E7WsmZ-fmFhMLjMDAdrqMmQNpkrmnkUzcvqPe4HmJLNsI3Tv9K5rZvgAUWKklbfVnNZcsLSIXaOpRfNB65sYyz9zd7rmVHbvFJ7nX4sKGbWFYrYwpgJitdvvU7xV0QFldgHRuwx0_AEEn5c2KSKyIxNcuAdKRt1UWk-fT3cv8-1Yxf_Te9A2VN_fIVoOV2oq5UsFxBjXRUsKlMsCovv2okJSkguDxvDyfgxuYVyKI1_P7axmSNe4jRHxvYMXtzlSNaGUrZsuWEBaYV43s2BsSdJiponz0S0]--></g></svg>